<svg xmlns="http://www.w3.org/2000/svg" width="124" height="56" viewBox="0 0 124 56" fill="none">
<path fill-rule="evenodd" clip-rule="evenodd" d="M34.8509 0.809764C34.3071 1.09902 33.8412 2.45355 33.5349 4.63592C33.3673 5.83036 33.3169 6.34028 33.1679 8.3493C33.1197 8.99983 33.0588 9.79201 33.0328 10.1097C33.0067 10.4274 32.9595 11.2939 32.9278 12.0352C32.8962 12.7765 32.8336 14.0514 32.7885 14.8683C32.6353 17.6485 32.5982 18.3885 32.5651 19.3244C32.535 20.1797 32.4754 21.0201 32.2394 23.918C31.9546 27.4153 31.5131 29.5857 30.9856 30.0822C30.8136 30.244 30.5782 30.1949 30.1282 29.9031C29.2469 29.3316 28.4292 28.1925 27.0954 25.6784C26.4478 24.4576 25.7908 23.3145 25.3724 22.6802C24.4977 21.3543 24.021 20.8489 23.3148 20.4989C23.0079 20.3468 22.9329 20.3319 22.5667 20.3504C22.232 20.3673 22.1126 20.4002 21.895 20.5353C21.569 20.7378 21.2976 21.1963 21.2117 21.6899C21.1783 21.8818 21.1525 22.7676 21.1522 23.7299C21.152 24.6654 21.1257 25.5916 21.0938 25.7881C20.9774 26.5057 20.6712 26.9489 20.224 27.0468C20.0777 27.0789 18.6396 27.1135 16.8341 27.1283L13.6984 27.1541L13.6816 27.3455L13.6649 27.5368L14.5781 27.5772C15.0804 27.5993 16.5361 27.605 17.8131 27.5897C20.359 27.5592 20.48 27.5448 20.9073 27.2216C21.0271 27.131 21.1405 27.0561 21.1593 27.0553C21.3336 27.0475 21.157 28.29 20.9232 28.7174C20.6605 29.1977 20.0853 29.3091 17.8689 29.3092C16.544 29.3093 16.4463 29.3319 16.7272 29.5735L16.8855 29.7096L18.4002 29.6763C20.0644 29.6396 20.3028 29.6084 20.8067 29.3617C21.2557 29.1419 21.3428 29.0202 21.4227 28.5006C21.4983 28.0085 21.6461 27.5414 21.713 27.5827C21.7381 27.5982 21.7451 28.1725 21.7286 28.8589C21.7121 29.5453 21.6849 31.3324 21.6682 32.8301C21.6515 34.3278 21.6354 35.7018 21.6325 35.8833C21.6223 36.5121 21.8063 38.1973 21.9689 38.9659C22.3766 40.8924 22.9421 42.0541 24.1128 43.3701C25.2627 44.6627 26.598 45.5514 28.0293 45.9767C28.7074 46.1782 30.1633 46.3359 30.8349 46.2805C32.414 46.1504 33.285 45.8164 34.5361 44.8614C34.8017 44.6587 35.043 44.4929 35.0724 44.4929C35.1052 44.4929 35.1205 44.8366 35.1121 45.3868L35.0984 46.2808L37.6153 46.2951L40.1321 46.3094L40.137 39.3634C40.1397 35.5432 40.1522 31.3517 40.1648 30.049C40.1839 28.0605 40.175 27.6633 40.1092 27.5734C40.0336 27.4701 39.9448 27.4663 37.5533 27.4663H35.0758L35.0561 32.4725C35.0368 37.405 35.0347 37.486 34.9159 37.9738C34.5395 39.518 34.0242 40.3912 33.2263 40.8375C32.7991 41.0764 32.098 41.3359 31.5929 41.4422C30.7964 41.6097 29.7315 41.5104 29.0866 41.2085C28.6948 41.025 27.9998 40.5029 27.7118 40.1757C27.2813 39.6864 26.8272 38.7207 26.6832 37.9879C26.5488 37.3039 26.4957 36.0072 26.527 34.1779C26.5604 32.2348 26.5606 32.1885 26.54 31.0262C26.5225 30.0403 26.5746 29.8794 26.762 30.3393C27.2306 31.489 28.489 33.7097 29.1547 34.5617C29.8049 35.3941 30.3813 35.7916 30.8474 35.7291C31.205 35.6811 31.6229 35.2044 31.6919 34.7657C31.7613 34.3246 31.7878 34.2185 31.8656 34.0679C31.9125 33.9771 31.971 33.8616 31.9955 33.8114C32.0201 33.761 32.0461 33.6201 32.0532 33.4983C32.0605 33.3764 32.0864 33.2891 32.1108 33.3042C32.1544 33.3312 32.1612 33.3121 32.1767 33.1189C32.1809 33.0659 32.1982 32.9979 32.215 32.9676C32.2319 32.9374 32.2502 32.8397 32.2557 32.7507C32.2613 32.6616 32.2966 32.5691 32.3343 32.5452C32.3879 32.5111 32.3872 32.5015 32.3308 32.5008C32.2912 32.5004 32.2758 32.4725 32.2966 32.4388C32.3174 32.4052 32.305 32.3595 32.269 32.3373C32.2318 32.3142 32.2756 32.2949 32.3711 32.2921C32.4631 32.2895 32.5527 32.3104 32.5702 32.3387C32.5876 32.3669 32.5709 32.39 32.5331 32.39C32.4941 32.39 32.5106 32.4276 32.5711 32.4766C32.6298 32.5242 32.6407 32.5459 32.5953 32.5248C32.55 32.5037 32.6293 32.5979 32.7716 32.7341C32.914 32.8704 33.015 32.9972 32.9963 33.016C32.9775 33.0348 32.9895 33.0501 33.0229 33.0501C33.0563 33.0501 33.0852 33.0934 33.0872 33.1464C33.0892 33.1994 33.11 33.7131 33.1334 34.2879C33.1569 34.8628 33.1721 35.9892 33.1672 36.791C33.1585 38.2182 33.2127 38.5673 33.2735 37.4772C33.3118 36.791 33.4485 34.6697 33.5569 33.0777C33.6022 32.412 33.6655 31.4465 33.6975 30.9321C33.7296 30.4178 33.7918 29.5761 33.8358 29.0617C33.8798 28.5473 33.9405 27.1981 33.9706 26.0635C34.0007 24.9288 34.0506 23.5026 34.0813 22.8942C34.1346 21.839 34.1485 21.7469 34.3823 20.9018C34.6471 19.9446 34.8545 19.4705 35.118 19.2205C35.2619 19.0839 35.3148 19.0663 35.4936 19.0953C36.1486 19.2016 36.9688 20.1954 38.248 22.4326C38.8044 23.4056 40.1051 26.0581 41.431 28.9234C41.7599 29.634 42.0373 30.1718 42.0476 30.1184C42.0578 30.0651 41.8269 29.5085 41.5344 28.8814C41.2419 28.2544 40.8012 27.3082 40.5551 26.7787C39.0338 23.5058 37.887 21.3847 37.0025 20.208C36.5181 19.5635 36.1815 19.2276 35.8729 19.0807C35.269 18.7932 35.0197 18.8995 34.6943 19.5832C34.5036 19.9838 34.4109 20.2851 34.1985 21.1948C34.1232 21.517 34.1192 19.9955 34.1935 19.3085C34.3047 18.2795 34.7236 17.0072 35.0631 16.6678C35.2302 16.5006 35.2768 16.4822 35.4673 16.5078C36.2362 16.6109 37.4637 18.3603 39.142 21.745C39.8919 23.2573 40.0482 23.5957 41.3272 26.4761C41.9735 27.9314 42.1021 28.1762 42.0362 27.8249C41.9747 27.4976 40.041 23.2091 39.1335 21.3874C37.5327 18.1741 36.4948 16.6949 35.6018 16.3539C35.3635 16.2629 35.3439 16.2632 35.1431 16.3613C34.8849 16.4874 34.5935 17.0081 34.391 17.7054C34.2702 18.1215 34.2521 18.1528 34.2155 18.0098C34.1094 17.5949 34.2911 15.9558 34.5289 15.1842C34.7467 14.4776 35.1138 13.9606 35.398 13.9606C36.0436 13.9606 37.2159 15.5589 38.6462 18.3892C39.501 20.0805 39.8999 20.9472 41.6466 24.9082C41.9747 25.6523 42.1676 26.0387 42.1676 25.952C42.1675 25.6542 40.6602 22.138 39.3344 19.3429C37.7368 15.9746 36.6133 14.2456 35.729 13.7945C35.2689 13.5597 35.0051 13.6826 34.6987 14.2745C34.5765 14.5104 34.4446 14.8115 34.4055 14.9438C34.3488 15.1355 34.3262 15.1634 34.2939 15.0813C34.1928 14.824 34.3095 13.462 34.4942 12.7446C34.7001 11.9442 35.0698 11.43 35.4392 11.43C36.0883 11.43 37.2914 13.1971 38.8849 16.4912C39.4612 17.6826 40.3076 19.5682 41.2644 21.792C41.6399 22.6651 42.0207 23.5191 42.1103 23.69C42.3366 24.1207 42.4108 24.622 42.3631 25.3989C42.3416 25.7493 42.3264 26.1103 42.3295 26.201C42.3507 26.8433 42.3723 32.2599 42.3794 38.7027L42.3877 46.3083H44.9176H47.4475L47.462 39.7365L47.4764 33.1648L47.7042 32.9287C47.9319 32.6927 48.1415 32.3492 48.0896 32.2972C48.0745 32.2821 48.0227 32.346 47.9745 32.4392C47.8518 32.6764 47.5576 33.0009 47.4983 32.9642C47.4711 32.9474 47.4489 32.5391 47.4489 32.0568V31.18L47.6344 30.9736C47.7365 30.86 47.9208 30.6107 48.0439 30.4196L48.2678 30.072L48.3319 30.3096C48.3777 30.4792 48.3795 30.5943 48.3385 30.7121C48.2579 30.9434 48.164 31.4917 48.164 31.7313C48.164 31.9653 48.3845 32.4175 48.4986 32.4175C48.584 32.4175 48.6065 32.2268 48.7068 30.656C48.7711 29.6484 48.8255 29.3571 49.0255 28.9486C49.388 28.2083 49.6787 28.0859 50.1163 28.4893C50.2507 28.6132 50.4541 28.837 50.5682 28.9867C50.6823 29.1363 50.7846 29.2317 50.7956 29.1987C50.8253 29.1098 50.5728 28.7526 50.2572 28.437C49.7438 27.9236 49.3891 28.0013 49.0256 28.7069C48.9094 28.9323 48.8104 29.1209 48.8055 29.126C48.7562 29.1776 48.8904 27.5889 48.961 27.2851C49.0622 26.8491 49.389 26.2976 49.6657 26.0956C49.8071 25.9923 49.8314 25.9899 49.967 26.066C50.2236 26.21 50.6607 26.8613 51.3868 28.1815C51.6935 28.7392 51.6942 28.491 51.3876 27.866C50.8713 26.8132 50.134 25.8432 49.8506 25.8437C49.561 25.8442 49.1712 26.2311 48.9964 26.6916L48.9018 26.9409L48.919 26.4059C48.9437 25.6379 49.0332 25.0921 49.194 24.7296C49.3539 24.369 49.7443 23.973 49.9399 23.973C50.2766 23.973 51.0555 25.1977 51.7963 26.8918C52.3642 28.1907 52.3587 28.1583 52.0456 28.3418C51.908 28.4224 51.6028 28.6592 51.3674 28.868C50.3975 29.7282 49.5152 31.5685 49.5205 32.7201C49.523 33.2437 49.6621 34.1865 49.7949 34.5794C50.0237 35.2562 50.5243 36.0085 51.1321 36.5892C51.8938 37.317 52.6991 37.788 53.9679 38.2478C54.5854 38.4717 54.9007 38.5436 56.2784 38.7754C58.2678 39.1101 58.6168 39.1981 59.3099 39.5394C59.9974 39.878 60.2669 40.1435 60.2669 40.4825C60.2669 40.7714 60.1322 41.0533 59.915 41.219C59.6753 41.4018 58.963 41.6775 58.4613 41.7817C57.8588 41.9069 56.4092 41.9044 55.8934 41.7774C54.6455 41.4701 54.0896 40.7993 53.9495 39.4317L53.9129 39.0741L52.345 39.0388C51.4827 39.0194 50.4925 38.9947 50.1445 38.9838L49.5119 38.964L49.5158 39.6517C49.5279 41.7913 50.4025 43.4425 52.2625 44.8378C53.9795 46.1257 56.1602 46.5316 59.2492 46.1383C59.9238 46.0524 60.9505 45.7695 61.5508 45.5042C63.4811 44.6511 64.5202 43.217 64.7801 41.0474C64.8585 40.3927 64.7717 39.7746 64.4825 38.9278C64.2071 38.1214 63.895 37.615 63.3186 37.0394C62.4264 36.1485 61.5087 35.5951 60.1238 35.113L59.3547 34.8452L59.5641 34.1289C59.7662 33.4377 59.8941 32.7069 59.7818 32.8851C59.6915 33.0284 59.2767 34.475 59.2767 34.6465C59.2767 34.8542 59.2141 34.8558 58.2864 34.671C57.9082 34.5957 57.3693 34.5098 57.0889 34.4801C56.8085 34.4504 56.3753 34.3614 56.1262 34.2823C55.8771 34.2032 55.5582 34.1028 55.4176 34.0593C55.0936 33.9591 54.6903 33.6934 54.5168 33.466C54.3416 33.2362 54.2155 32.8716 54.2155 32.5946C54.2155 32.4085 54.2499 32.3402 54.43 32.1688C54.9142 31.7083 55.6963 31.5244 57.2687 31.5013C57.8966 31.492 57.9607 31.5018 58.581 31.7019C59.5742 32.0223 60.0373 32.424 60.294 33.1877C60.4725 33.7188 60.4622 33.9661 60.2432 34.4162C60.0361 34.8417 59.9707 35.1045 60.1657 34.728C60.3095 34.4502 60.4759 34.2656 60.652 34.1886C60.7383 34.1509 61.5191 34.1172 62.7479 34.0982C64.2924 34.0743 64.7255 34.0519 64.7971 33.9924C64.9093 33.8992 64.9128 33.659 64.8103 33.0777C64.517 31.4147 63.8198 29.8936 63.0328 29.1995C62.3268 28.5769 60.544 27.575 59.8956 27.4364C59.7367 27.4025 59.6067 27.3641 59.6067 27.3511C59.6067 27.2748 60.1192 26.071 60.238 25.8683C60.5106 25.4032 61.0161 25.0182 61.3542 25.0182C61.6241 25.0182 61.9951 25.3055 62.2904 25.7432C62.7038 26.3558 62.8992 26.7806 63.7093 28.8272C64.1197 29.8639 64.4778 30.7616 64.5052 30.8221C64.5327 30.8826 64.6074 31.0807 64.6714 31.2622C64.7353 31.4438 64.8226 31.6703 64.8653 31.7656C64.9081 31.861 64.943 31.9549 64.943 31.9743C64.943 31.9936 65.0202 32.1747 65.1146 32.3766C65.209 32.5785 65.2919 32.7694 65.2987 32.8007C65.3056 32.832 65.3362 32.9195 65.3668 32.9951C65.3974 33.0708 65.4737 33.2812 65.5364 33.4627C65.6789 33.8758 65.8806 34.3314 65.9085 34.3034C65.946 34.266 63.9767 28.3695 63.6894 27.6589C63.165 26.362 62.7409 25.5735 62.2791 25.0368C61.8692 24.5605 61.3751 24.4637 60.7868 24.7444C60.2155 25.0171 59.8808 25.5113 59.4145 26.7706L59.2036 27.3402L59.0063 27.3073C58.3426 27.1963 56.9689 27.0994 56.3745 27.1217C55.8873 27.1399 55.685 27.1284 55.645 27.0803C55.6146 27.0437 55.539 26.859 55.4769 26.67C55.4149 26.4809 55.1926 25.8831 54.983 25.3414C54.7734 24.7998 54.2571 23.3976 53.8356 22.2256C52.7567 19.2251 52.5012 18.5318 52.2088 17.8115C51.7129 16.5899 51.1754 15.6411 50.7051 15.1572C50.4951 14.941 50.417 14.8958 50.2535 14.8958C49.9285 14.8958 49.5718 15.225 49.2083 15.8603C48.9618 16.291 48.6938 17.1793 48.495 18.2241C48.0065 20.7916 47.933 21.1612 47.8569 21.4306C47.706 21.9647 47.6786 22.014 47.5785 21.931C47.5065 21.8712 47.4955 21.7838 47.5197 21.4638L47.5494 21.0702L47.3479 21.0368C47.237 21.0185 46.7626 21.0003 46.2936 20.9964C45.8246 20.9925 45.3675 20.9736 45.2778 20.9543C45.0836 20.9127 45.1207 20.9806 44.4172 19.3794C43.3776 17.0132 42.9289 15.9161 41.425 12.0627C39.3021 6.62315 38.0437 3.81281 37.061 2.31651C36.5788 1.58231 35.9667 0.914397 35.6578 0.785337C35.394 0.675091 35.0866 0.68439 34.8509 0.809764ZM35.0866 1.32138C34.9001 1.52466 34.692 1.99205 34.5473 2.53222C34.3882 3.12631 34.3127 3.7282 34.3973 3.7282C34.4285 3.7282 34.4672 3.69399 34.4832 3.65212C34.4993 3.61026 34.6535 3.49534 34.826 3.39664L35.1395 3.21724L35.4281 3.30824C36.0239 3.49605 36.5951 4.11098 37.3413 5.36776C38.3169 7.01094 39.3659 9.38068 41.5228 14.8133C42.5507 17.4023 43.1838 18.9284 43.7023 20.0671L44.0906 20.9198L44.4219 20.9362C44.6261 20.9462 44.7532 20.9304 44.7532 20.895C44.7532 20.8634 44.6309 20.6173 44.4815 20.3482C43.8486 19.2084 43.6384 18.7218 41.591 13.6581C40.857 11.8426 40.0397 9.82502 39.7748 9.17449C37.9432 4.6758 36.4847 1.92867 35.6254 1.3589C35.3332 1.16515 35.2361 1.15838 35.0866 1.32138ZM35.0525 3.96201C34.834 4.25341 34.692 4.57744 34.5497 5.1092C34.4076 5.64013 34.3068 6.5353 34.3894 6.53178C34.4163 6.53062 34.5064 6.43122 34.5897 6.31085C35.2604 5.34124 36.2368 5.98671 37.5484 8.26678C38.0051 9.06078 38.9174 10.938 39.4332 12.1452C40.3171 14.214 40.5047 14.6666 41.3716 16.8213C41.8645 18.0467 42.4511 19.4702 42.6752 19.9846L43.0824 20.9198L43.4227 20.9362C43.7414 20.9515 43.8529 20.8993 43.7015 20.8058C43.6134 20.7513 43.3402 20.1356 42.6538 18.4442C40.2122 12.4281 38.8573 9.25861 37.95 7.44158C36.9622 5.46315 36.2024 4.30771 35.636 3.92284C35.3593 3.73486 35.2156 3.74454 35.0525 3.96201ZM35.0685 6.51758C34.849 6.76762 34.6503 7.19204 34.5104 7.71015C34.3973 8.12858 34.3072 9.34063 34.3894 9.33788C34.4163 9.337 34.5204 9.19281 34.6207 9.01754C34.8304 8.65104 35.0457 8.50026 35.3533 8.50449C35.6436 8.50851 35.857 8.6511 36.3591 9.17664C37.4275 10.295 38.3871 12.1368 40.5458 17.2126C41.2464 18.8598 41.9547 20.5937 42.0564 20.9105C42.1166 21.0978 42.1396 21.1175 42.2623 21.0867C42.3383 21.0676 42.474 21.0373 42.5639 21.0193C42.6537 21.0014 42.7402 20.9528 42.7561 20.9114C42.772 20.8699 42.6477 20.5331 42.4798 20.1627C42.312 19.7924 42.0097 19.0933 41.8079 18.6092C41.4449 17.7378 41.2782 17.3434 40.0755 14.5108C38.8308 11.5792 38.058 9.94226 37.2575 8.54184C36.7558 7.66422 36.6009 7.42948 36.2274 6.98074C35.9511 6.64863 35.5067 6.31382 35.3423 6.31382C35.2901 6.31382 35.1669 6.40552 35.0685 6.51758ZM35.2 8.87027C35.0233 8.99399 34.7448 9.46138 34.6011 9.87514C34.4028 10.4463 34.3268 11.0698 34.3511 11.9251L34.3597 12.2277L34.5409 11.8416C34.9102 11.055 35.398 10.8995 36.001 11.3762C37.0492 12.2047 38.3856 14.6136 40.5174 19.5169C41.1487 20.9692 41.9368 22.9089 42.1098 23.4366C42.1768 23.6409 42.2532 23.808 42.2796 23.808C42.427 23.808 42.4096 22.4941 42.2547 21.9232C42.2074 21.7489 41.9561 21.1195 41.6963 20.5245C41.4364 19.9295 41.0868 19.119 40.9194 18.7234C40.752 18.3278 40.521 17.7937 40.4062 17.5365C40.2913 17.2793 40.0323 16.689 39.8306 16.2248C38.773 13.7913 37.5484 11.3608 36.8604 10.3298C36.4295 9.68408 35.9828 9.1866 35.6314 8.96104C35.3198 8.76112 35.3475 8.76696 35.2 8.87027ZM49.9725 15.6248C49.726 15.9585 49.4507 16.5722 49.3685 16.9711C49.3297 17.1594 49.3115 17.327 49.3281 17.3436C49.3447 17.3602 49.4919 17.3116 49.6552 17.2356C50.1398 17.01 50.2759 17.0378 50.6648 17.4414C51.3206 18.1222 51.9485 19.4647 53.0635 22.5702C53.2808 23.1753 53.7173 24.3627 54.0335 25.2089C54.3498 26.055 54.6227 26.8669 54.64 27.0132C54.6749 27.3075 54.621 27.2892 55.1507 27.1869C55.3743 27.1437 55.3653 27.0296 55.0902 26.4211C54.6151 25.3699 54.4664 25.0102 54.0669 23.9455C53.8398 23.3403 53.4616 22.3006 53.2265 21.6349C52.2417 18.8467 51.45 17.0068 50.7953 15.9854C50.3624 15.3099 50.2435 15.2578 49.9725 15.6248ZM49.9374 17.7265C49.6093 18.0026 49.2626 18.9262 49.2661 19.5147C49.2679 19.8169 49.2688 19.8185 49.3682 19.6995C49.5504 19.4812 49.8763 19.2969 50.0798 19.2969C50.2409 19.2969 50.3194 19.3432 50.5323 19.5641C50.8719 19.9164 51.1945 20.3975 51.4874 20.9885C51.7717 21.562 52.5051 23.373 52.9512 24.6034C53.1271 25.0888 53.3809 25.7705 53.5151 26.1185C53.7866 26.8224 53.9127 27.2883 53.8653 27.412C53.8259 27.5146 53.8519 27.5141 54.2192 27.4055C54.581 27.2986 54.6305 27.2712 54.551 27.2222C54.4937 27.1867 53.9529 25.8296 53.4757 24.5231C52.6825 22.3519 51.6926 19.913 51.234 18.9999C50.8101 18.1561 50.3927 17.5915 50.193 17.5915C50.1407 17.5915 50.0257 17.6523 49.9374 17.7265ZM76.0406 19.0192C75.6156 19.1551 75.3995 19.3309 75.0956 19.788C74.3752 20.8717 74.0793 21.996 73.6874 25.1397C73.4633 26.9383 73.4261 27.5152 73.5303 27.5796C73.5634 27.6001 73.6614 27.5644 73.7481 27.5003C73.8348 27.4362 73.9376 27.3836 73.9767 27.3835C74.0157 27.3833 74.1376 27.3582 74.2475 27.3277C74.4143 27.2814 74.4656 27.2289 74.5572 27.0116C74.6175 26.8684 74.683 26.6012 74.7026 26.418C74.8503 25.0408 75.4913 23.8394 76.1814 23.6462C76.8745 23.4521 77.8013 23.7978 78.7538 24.6056C79.3243 25.0896 79.9286 25.7872 80.8504 27.0262C81.9846 28.5506 82.4408 29.13 83.0132 29.7728C83.9088 30.7785 84.4176 31.2272 84.4176 31.0114C84.4176 30.9794 84.389 30.9708 84.3541 30.9924C84.3156 31.0162 84.3055 31.0076 84.3284 30.9705C84.3491 30.9369 84.4025 30.9234 84.4469 30.9404C84.6123 31.0039 84.513 30.8695 84.217 30.6296C83.6418 30.1632 82.7195 29.0608 81.0872 26.8887C80.3586 25.9191 79.972 25.4649 79.3029 24.7924C78.3926 23.8775 78.0491 23.6333 77.3209 23.3834C76.8575 23.2243 76.1848 23.2141 75.8609 23.3611C75.5782 23.4896 75.2427 23.8702 75.0209 24.3139L74.8476 24.6607L74.8465 24.2156C74.8446 23.4823 75.137 22.571 75.5566 22.0022C75.7632 21.7222 76.1926 21.4987 76.5255 21.498C77.2243 21.4963 78.1673 21.9833 79.0198 22.7864C79.6187 23.3506 80.6707 24.6284 81.7468 26.0985C81.9874 26.4272 82.4317 27.0056 82.7341 27.3838C84.0259 28.9994 85.1985 29.86 86.3311 30.0238C86.7779 30.0884 87.1929 30.0921 87.0344 30.03C86.863 29.9629 87.0307 29.8978 87.4116 29.8835C87.9908 29.8617 87.976 29.8642 87.8834 29.8044C87.8381 29.7751 87.6771 29.7506 87.5258 29.75C87.1713 29.7486 86.2839 29.6065 85.9305 29.4944C84.7425 29.1179 83.2856 27.7463 81.5264 25.3483C80.5569 24.0269 79.4096 22.6006 79.0714 22.2966C78.9169 22.1577 78.5898 21.9111 78.3445 21.7486C77.2686 21.036 76.2989 20.8812 75.6293 21.3154C75.4075 21.4592 75.0231 21.982 74.8703 22.3477C74.8255 22.4549 74.7644 22.5427 74.7346 22.5427C74.5927 22.5427 74.7831 21.519 75.0552 20.8182C75.5592 19.5202 76.1953 19.1752 77.3514 19.5729C78.0299 19.8064 78.9738 20.6006 79.9333 21.7455C80.4743 22.391 80.5741 22.5188 81.6788 23.9817C83.5089 26.4052 84.6256 27.462 85.7429 27.8279L86.1505 27.9614H89.1817C91.3643 27.9614 92.2498 27.9436 92.3449 27.8978C92.4176 27.8627 92.5941 27.804 92.7373 27.7671C92.9931 27.7013 93.1596 27.5804 93.09 27.5108C93.0705 27.4914 92.5162 27.4857 91.8581 27.4984C91.2 27.511 89.7332 27.5206 88.5986 27.5196L86.5356 27.5179L86.0408 27.3647C84.7604 26.9682 83.6363 25.9713 81.9994 23.7804C80.3959 21.6343 80.0092 21.1518 79.3607 20.4879C78.4595 19.5656 77.8353 19.1684 77.0135 18.9943C76.5318 18.8922 76.4298 18.8949 76.0406 19.0192ZM49.7828 19.9301C49.5296 20.1987 49.2847 20.7319 49.1842 21.2338C49.1375 21.467 49.0993 21.7069 49.0993 21.7669C49.0993 21.931 49.2028 21.9624 49.3371 21.839C49.7288 21.479 50.0863 21.4092 50.3598 21.6393C50.5811 21.8256 51.1385 22.6629 51.4376 23.2583C51.8851 24.1494 53.1152 27.3338 53.1152 27.6013V27.7583L53.403 27.649C53.5612 27.5888 53.7068 27.5297 53.7265 27.5176C53.8245 27.4569 51.9747 22.7864 51.3643 21.5537C50.8031 20.4202 50.3185 19.737 50.0758 19.737C50.0148 19.737 49.883 19.8239 49.7828 19.9301ZM22.363 20.8409C21.9496 21.0152 21.7454 21.4092 21.7133 22.0949L21.6891 22.6099L21.9848 22.5625C22.4787 22.4834 23.0816 22.5114 23.2981 22.6235C23.6074 22.7836 24.4352 23.6282 24.8154 24.1716C25.3662 24.9588 25.9556 25.9863 26.6272 27.3301C27.7799 29.6366 28.8325 31.3273 29.5678 32.0534C29.9488 32.4297 30.5986 32.8851 30.7544 32.8851C30.8728 32.8851 31.1675 32.5357 31.3281 32.2051C31.6409 31.5611 31.9547 29.9459 31.7871 29.8423C31.7582 29.8245 31.6594 29.9075 31.5676 30.0269C31.1191 30.6105 30.7837 30.7083 30.19 30.4284C29.3331 30.0244 28.2465 28.649 27.0675 26.4761C25.74 24.0294 25.3549 23.3636 24.8721 22.6802C23.9806 21.4182 23.3576 20.864 22.7674 20.8081C22.6206 20.7942 22.4386 20.809 22.363 20.8409ZM35.0811 21.6853C34.6984 22.1005 34.3876 22.8552 34.2757 23.6408C34.2224 24.0153 34.2777 23.89 34.4074 23.3425C34.6205 22.4435 35.1249 21.6074 35.4543 21.6074C35.6438 21.6074 36.1846 21.9945 36.5999 22.4273C37.1629 23.0142 37.8291 24.0671 38.8921 26.0502C39.2206 26.6631 39.5005 27.1536 39.5139 27.1402C39.551 27.1031 39.2948 26.5682 38.8013 25.6525C37.6625 23.5396 36.9737 22.5263 36.2927 21.9622C36.0002 21.7198 35.5086 21.4442 35.3667 21.4429C35.3328 21.4426 35.2042 21.5517 35.0811 21.6853ZM49.7695 21.9724C49.49 22.1928 49.3223 22.5057 49.1769 23.0789C49.0611 23.5356 48.9973 24.193 49.0689 24.193C49.0825 24.193 49.163 24.1286 49.2477 24.0498C49.465 23.8479 49.7797 23.6979 49.9857 23.6979C50.211 23.6979 50.4783 23.9789 50.9016 24.6607C51.3959 25.4568 52.3433 27.5574 52.3458 27.8633C52.3478 28.0941 52.4263 28.1154 52.7225 27.9653C52.8798 27.8856 53.0052 27.7842 53.0052 27.7367C53.0052 27.5901 51.6917 24.4192 51.3473 23.7342C50.7662 22.5786 50.2494 21.8266 50.0374 21.8281C49.9904 21.8284 49.8699 21.8934 49.7695 21.9724ZM47.7429 22.4751C47.6483 22.6195 47.5436 22.8361 47.5103 22.9565C47.4462 23.1873 47.4378 23.9983 47.4966 24.2723C47.5288 24.4221 47.5465 24.3992 47.7364 23.9619C47.884 23.6222 47.9566 23.3561 47.9956 23.0127C48.0471 22.5602 48.0272 22.2126 47.95 22.2126C47.9306 22.2126 47.8374 22.3307 47.7429 22.4751ZM22.3781 22.9608C21.9212 23.1283 21.7586 23.4703 21.7581 24.2652L21.7578 24.7498L22.1566 24.7055C22.748 24.6398 23.0077 24.6678 23.3486 24.834C23.9299 25.1172 24.4846 25.7641 25.1574 26.9437L25.4241 27.4113L25.874 27.4273C26.1214 27.4361 26.3239 27.4311 26.3239 27.4161C26.3239 27.2734 25.3385 25.4884 24.8512 24.7482C24.3959 24.0568 23.7615 23.3548 23.3577 23.0957C23.0384 22.8908 22.6973 22.8439 22.3781 22.9608ZM35.1222 24.3072C34.8543 24.5972 34.5541 25.1732 34.4399 25.6157C34.3902 25.8082 34.3593 25.9753 34.3711 25.9872C34.383 25.999 34.4354 25.8539 34.4876 25.6648C34.6836 24.9547 35.2151 24.193 35.5145 24.193C35.9851 24.193 36.958 25.2485 38.0814 26.9778C38.2164 27.1855 38.085 26.8769 37.9153 26.5875C37.4014 25.7111 36.4456 24.6087 35.8696 24.2279C35.5512 24.0173 35.3722 24.0364 35.1222 24.3072ZM47.7724 24.5521C47.6399 24.718 47.5153 24.9093 47.4956 24.9773C47.4435 25.157 47.4486 26.2918 47.5021 26.4211C47.5399 26.5125 47.5848 26.452 47.7675 26.0635C47.8884 25.8063 48.0148 25.4647 48.0482 25.3044C48.1206 24.9572 48.1287 24.3217 48.0613 24.28C48.035 24.2638 47.905 24.3863 47.7724 24.5521ZM22.1704 25.1206C21.8743 25.3035 21.8195 25.4089 21.7651 25.9007C21.692 26.5619 21.7552 27.1491 21.9132 27.2771C22.068 27.4024 22.5411 27.4629 23.0395 27.4211C23.5049 27.3821 23.5774 27.3284 23.3771 27.1708C23.2435 27.0657 23.1587 27.0537 22.548 27.0537C22.0075 27.0537 21.8678 27.0382 21.8678 26.9781C21.8678 26.8844 22.1078 26.8336 22.5486 26.834C23.0122 26.8344 23.2776 26.9195 23.4958 27.1376C23.5977 27.2396 23.7744 27.349 23.8885 27.3806C24.1522 27.4538 25.1686 27.4575 25.1686 27.3852C25.1686 27.3558 24.9284 26.9949 24.6349 26.5833C24.0633 25.7815 23.6188 25.3235 23.2303 25.1354C22.9155 24.983 22.4047 24.9759 22.1704 25.1206ZM75.9037 25.5421C75.3722 25.8116 74.6803 26.9012 74.6803 27.4687C74.6803 27.5768 74.6431 27.5956 74.364 27.6287C73.933 27.6798 73.7235 27.7368 72.8924 28.0286C71.1768 28.6309 69.8164 29.5564 68.6772 30.8962C67.5148 32.2632 66.9282 33.4747 66.5382 35.3138C66.3295 36.2977 66.2896 37.014 66.396 37.865C66.6798 40.1339 67.4058 41.6508 69.0027 43.3106C70.2064 44.5618 71.5408 45.4398 72.9628 45.9162C73.6799 46.1564 74.0014 46.1992 75.368 46.2358C77.3901 46.29 78.5796 46.0717 79.9484 45.3955C81.3477 44.7041 82.3619 43.7877 83.5585 42.1335C83.9688 41.5663 83.9691 41.5788 83.5374 41.445C81.1339 40.7005 80.3367 40.444 79.9287 40.2838C79.6597 40.1782 79.4187 40.0918 79.3932 40.0918C79.3676 40.0918 79.0762 40.2792 78.7456 40.5084C77.9605 41.0524 77.3805 41.3205 76.6796 41.4633C75.1034 41.7845 73.8574 41.3909 72.4567 40.1295C72.0139 39.7308 71.6183 39.1497 71.5647 38.8193L71.5347 38.634L78.2865 38.618C82.6288 38.6077 85.0748 38.5825 85.1405 38.5473C85.2681 38.479 85.2702 38.3152 85.1607 36.9836C85.1159 36.4389 85.0789 35.9675 85.0785 35.9359C85.0781 35.9043 85.3638 35.9739 85.7134 36.0906C86.3928 36.3174 86.8031 36.356 86.3431 36.1498C86.2069 36.0889 85.8706 35.9807 85.5957 35.9096L85.0958 35.7803L85.026 35.3642C84.9876 35.1354 84.8702 34.6758 84.7652 34.3429C84.6339 33.927 84.5826 33.6733 84.6008 33.5315C84.6153 33.4181 84.6054 33.3252 84.5788 33.3252C84.5522 33.3252 84.4903 33.2476 84.4413 33.1527C84.1957 32.6779 83.2723 31.3612 82.8289 30.8537C82.5533 30.5384 82.0199 29.9937 81.6436 29.6435C80.9083 28.9592 81.0493 29.0428 79.4065 28.3163C78.7727 28.036 77.5315 27.6748 76.9448 27.5999C76.6474 27.562 76.1426 27.5533 75.6018 27.5768C75.1253 27.5976 74.7353 27.6029 74.7353 27.5886C74.7353 27.4941 75.062 26.854 75.2702 26.5405C75.5772 26.0782 75.957 25.7681 76.3237 25.6801C76.5631 25.6227 76.651 25.6291 77.0248 25.7317C77.8818 25.9668 78.6785 26.5157 79.6315 27.5278C79.8282 27.7367 80.1809 28.1112 80.4154 28.3602C80.6499 28.6092 80.8418 28.7923 80.8418 28.7671C80.8418 28.645 79.9311 27.5078 79.3889 26.9528C78.3934 25.9339 77.5505 25.4594 76.6608 25.4174C76.2388 25.3974 76.1649 25.4096 75.9037 25.5421ZM47.889 26.4622C47.5144 26.9128 47.4489 27.1118 47.4489 27.7988C47.4489 28.1379 47.4646 28.4941 47.4839 28.5905L47.519 28.7656L47.6768 28.5286C47.8979 28.1967 48.0357 27.8033 48.1048 27.3065C48.1732 26.8149 48.183 26.2281 48.1228 26.2295C48.1001 26.2301 47.9949 26.3348 47.889 26.4622ZM60.866 27.0246C60.6227 27.1141 60.2685 27.3389 60.2676 27.4044C60.2672 27.4308 60.4093 27.4363 60.5832 27.4165C61.3986 27.324 61.5307 27.3198 61.7138 27.3802C61.9609 27.4618 62.3302 27.8569 62.6175 28.3471C62.8833 28.8007 63.1829 29.1197 63.182 28.9482C63.1813 28.8084 62.9678 28.3539 62.7141 27.9525C62.4562 27.5443 62.1121 27.1843 61.8507 27.0492C61.612 26.9258 61.1647 26.9146 60.866 27.0246ZM0.866474 27.6493C0.811571 27.6841 0.800403 30.2867 0.811461 40.4802L0.825325 53.2674L3.34217 53.2817C4.72646 53.2896 5.86452 53.2896 5.87129 53.2817C5.87805 53.2739 5.89659 51.3014 5.91255 48.8985C5.93323 45.7809 5.95897 44.5237 6.00232 44.5092C6.03577 44.4981 6.27618 44.6576 6.5365 44.8637C7.838 45.894 8.90261 46.2606 10.6176 46.2689C12.4518 46.2778 14.3946 45.7058 15.8714 44.7221C16.7329 44.1481 17.899 42.9878 18.4787 42.1273C18.8413 41.5893 19.4299 40.3734 19.5821 39.8482C19.6562 39.5924 19.7848 39.0784 19.8678 38.7059C20.0039 38.0956 20.0187 37.9242 20.0184 36.9683L20.018 35.9079L20.3116 35.8225C20.8628 35.6623 21.3397 35.1722 21.4033 34.7005L21.4366 34.453L21.2913 34.7555C21.2113 34.922 21.067 35.1416 20.9705 35.2435C20.7973 35.4265 20.073 35.82 19.9963 35.7726C19.9746 35.7592 19.9395 35.5956 19.9185 35.409C19.8869 35.13 19.7069 34.3389 19.579 33.9166C19.5553 33.8383 19.5842 33.8203 19.7346 33.8203C20.0375 33.8203 20.541 33.6651 20.7859 33.4962C21.1465 33.2474 21.2115 33.1479 21.2442 32.7945L21.274 32.4725L21.1252 32.7627C21.0434 32.9223 20.9062 33.1231 20.8204 33.2089C20.6657 33.3636 20.0739 33.6166 19.7158 33.6811L19.5298 33.7147L19.013 32.7141C18.5237 31.7666 18.4599 31.6722 17.8133 30.9377C16.7932 29.7787 16.3698 29.4198 15.3961 28.8886C14.107 28.1852 13.3436 27.9074 12.213 27.7302C11.3697 27.5981 9.85307 27.5986 9.19512 27.7314C8.11417 27.9494 7.33238 28.3106 6.5343 28.9604C5.91238 29.4669 5.91403 29.468 5.91403 28.5436C5.91403 28.1225 5.89901 27.7387 5.88064 27.6909C5.85087 27.6133 5.58054 27.604 3.3913 27.6047C2.04051 27.6052 0.904378 27.6252 0.866474 27.6493ZM94.705 27.6934C93.2246 27.8938 92.1225 28.3217 90.7877 29.2143C89.8841 29.8185 89.7616 29.928 89.1423 30.6846C88.2795 31.7385 88.1253 31.9592 87.756 32.6697C87.3293 33.4905 87.1691 33.9238 86.9841 34.7578C86.7447 35.8368 86.7036 36.3633 86.7674 37.5337C86.8219 38.5342 86.8353 38.6166 87.0812 39.4592C87.5616 41.1052 88.3594 42.4092 89.6228 43.6134C91.3584 45.2679 92.9271 45.9972 95.2503 46.2301C96.1303 46.3182 96.2328 46.3183 96.9263 46.2316C97.8981 46.1101 98.346 45.9827 99.0883 45.6166C99.5832 45.3726 99.7961 45.2272 100.179 44.8719C100.566 44.512 100.668 44.4426 100.733 44.4959C100.8 44.5517 100.811 45.205 100.811 48.9281V53.2949H103.342H105.873V40.4494V27.6039H103.35H100.828L100.797 28.4631C100.779 28.9357 100.741 29.3463 100.712 29.3755C100.678 29.4098 100.525 29.3076 100.284 29.089C99.8233 28.6714 99.5777 28.5008 99.0669 28.2442C97.9656 27.6905 96.2895 27.4789 94.705 27.6934ZM26.5163 28.2192C26.4744 28.7777 26.5601 29.6698 26.679 29.9144C26.9913 30.5564 27.967 32.3447 28.3448 32.9676C28.9363 33.9428 29.4149 34.5562 29.9087 34.9719C30.5068 35.4754 30.7563 35.5642 31.0105 35.3642C31.3856 35.0692 31.8741 33.6508 31.8863 32.8218C31.8896 32.5994 31.912 32.4051 31.9362 32.3898C32.0063 32.3458 31.93 32.0599 31.8482 32.0599C31.8074 32.0599 31.7475 32.1094 31.7151 32.1699C31.6827 32.2304 31.67 32.28 31.6868 32.28C31.7483 32.28 31.4968 32.6976 31.3309 32.8709C31.2371 32.969 31.0974 33.065 31.0205 33.0843C30.8074 33.1378 30.3546 33.0671 30.0902 32.9391C29.8254 32.811 29.2352 32.2452 28.8859 31.7848C28.3858 31.1257 27.3761 29.4059 26.8701 28.3511L26.5556 27.6955L26.5163 28.2192ZM47.9571 28.4157C47.8886 28.529 47.7463 28.7419 47.6408 28.8889L47.4489 29.1562V30.0665C47.4489 30.9556 47.4513 30.9745 47.5528 30.8826C47.723 30.7286 47.991 30.1757 48.0787 29.7977C48.1237 29.6036 48.1774 29.1667 48.1981 28.8268C48.2291 28.3159 48.2222 28.2091 48.1585 28.2094C48.1162 28.2097 48.0255 28.3025 47.9571 28.4157ZM40.8362 29.8984C40.9348 30.1713 41.9215 32.2188 41.9813 32.2748C42.0655 32.3536 41.9015 31.9716 41.5111 31.1797C41.2799 30.7107 41.0222 30.1723 40.9385 29.9832C40.7586 29.5772 40.7036 29.5316 40.8362 29.8984ZM21.242 30.1927C21.1375 30.5983 20.8892 31.0203 20.6532 31.1932C20.5677 31.2558 20.2292 31.3504 19.8005 31.4315C18.6154 31.6556 18.5094 31.6811 18.542 31.734C18.6094 31.843 20.1912 31.7107 20.5779 31.5637C20.8548 31.4584 21.205 31.0689 21.2884 30.7732C21.3665 30.4966 21.4175 29.8858 21.3667 29.8351C21.3525 29.8208 21.2963 29.9817 21.242 30.1927ZM49.3893 30.3111C49.3219 30.3436 49.2523 30.4157 49.2347 30.4711C49.2171 30.5266 49.1175 30.674 49.0134 30.7986C48.9093 30.9232 48.8242 31.0525 48.8242 31.0859C48.8242 31.1694 48.8881 31.0995 49.1376 30.7438C49.3076 30.5014 49.3983 30.4275 49.6219 30.3493C49.8918 30.2548 49.8934 30.253 49.7044 30.2525C49.5985 30.2522 49.4567 30.2785 49.3893 30.3111ZM85.6305 31.6992C85.5781 31.7623 85.539 31.7702 85.488 31.7278C85.4481 31.6947 85.4044 31.6909 85.3871 31.7189C85.2971 31.8646 86.4056 32.1532 87.2508 32.2042C87.6361 32.2274 87.708 32.2166 87.8284 32.1182C87.9451 32.0228 87.9534 31.9974 87.8834 31.9511C87.8381 31.9211 87.6648 31.8949 87.4983 31.8929C87.2013 31.8894 86.0403 31.7209 85.8166 31.6488C85.7434 31.6252 85.6769 31.6432 85.6305 31.6992ZM55.6197 31.7921C55.7455 32.1974 56.4247 33.3607 56.7524 33.7325C57.0083 34.0226 57.3797 34.3154 57.4919 34.3154C57.5299 34.3154 57.4076 34.1607 57.22 33.9716C56.8515 33.6002 56.5609 33.1828 56.0437 32.282C55.7262 31.7292 55.5296 31.502 55.6197 31.7921ZM56.9365 31.8564C57.1082 32.1184 57.5003 32.3228 57.7638 32.2875C57.9144 32.2675 58.4813 31.8773 58.3996 31.8501C58.3635 31.838 58.1864 31.8944 58.0061 31.9753C57.6376 32.1407 57.4837 32.1217 57.1039 31.864C56.8586 31.6975 56.8316 31.6963 56.9365 31.8564ZM54.8756 32.218C54.8756 32.4262 55.7006 34.1235 55.7417 34.0001C55.7806 33.8834 55.0196 32.1699 54.929 32.1699C54.8996 32.1699 54.8756 32.1916 54.8756 32.218ZM10.095 32.3357C9.13785 32.4353 8.2517 32.8632 7.49796 33.5898C6.63167 34.4249 6.12 35.4701 5.99809 36.6535C5.9318 37.2968 6.22639 38.4887 6.64383 39.2666C6.80997 39.5762 7.01264 39.8254 7.45544 40.2648C7.96381 40.7691 8.11714 40.8857 8.56148 41.1057C9.47508 41.5581 10.5344 41.6859 11.5658 41.4682C12.595 41.2509 13.3056 40.8444 14.0927 40.0228C14.5745 39.5198 14.8313 39.1283 14.9675 38.689C15.0852 38.3094 15.3213 36.9845 15.3213 36.7034C15.3213 36.3519 15.0223 35.2442 14.8065 34.7965C14.5671 34.2999 13.7834 33.4451 13.2302 33.0773C12.3404 32.4858 11.214 32.2193 10.095 32.3357ZM59.0905 32.6961C58.8416 33.1816 58.3804 33.7906 58.0995 34.0048C57.9913 34.0874 57.8775 34.2022 57.8465 34.26C57.794 34.3583 57.8019 34.3612 57.9696 34.304C58.4534 34.1392 59.3601 32.9101 59.3212 32.4717C59.3044 32.282 59.3014 32.285 59.0905 32.6961ZM95.5302 32.3349C94.8476 32.4045 94.13 32.6872 93.405 33.1721C93.0964 33.3785 92.8836 33.5853 92.548 34.0048C91.9684 34.7294 91.7315 35.234 91.539 36.1544C91.4 36.8192 91.3946 36.8961 91.4558 37.3337C91.5287 37.8545 91.7849 38.7082 91.9945 39.1291C92.5063 40.1563 93.8436 41.1969 94.9801 41.4524C95.594 41.5903 96.6916 41.5775 97.2727 41.4255C98.4903 41.1071 99.6313 40.1949 100.176 39.1041C100.75 37.954 100.899 36.6358 100.564 35.6633C100.171 34.5237 99.5608 33.6705 98.7565 33.1378C97.7707 32.4847 96.6925 32.2164 95.5302 32.3349ZM74.5955 32.5227C73.8618 32.7682 72.972 33.2203 72.6593 33.5065C72.3655 33.7753 71.8528 34.4491 71.6546 34.8267C71.5358 35.053 71.5283 35.096 71.5996 35.1413C71.7055 35.2089 79.8494 35.2127 79.9559 35.1453C80.1263 35.0374 79.754 34.399 79.1436 33.7519C78.5432 33.1154 77.8724 32.7242 76.9362 32.4646C76.5627 32.3609 76.3366 32.3352 75.8085 32.3365C75.2073 32.3378 75.0983 32.3546 74.5955 32.5227ZM26.6539 32.3998C26.6539 32.4747 26.8695 32.9336 27.4503 34.0954C28.7219 36.6391 29.3496 37.5508 30.2291 38.132C30.6473 38.4083 30.8682 38.4044 31.1822 38.115C31.3113 37.996 31.4731 37.7862 31.5417 37.6487C31.6672 37.3975 31.9542 36.1855 31.888 36.1863C31.8686 36.1866 31.7961 36.3908 31.727 36.6402C31.4848 37.5136 31.1043 38.1113 30.7904 38.1113C30.5785 38.1113 30.0563 37.7602 29.6288 37.33C29.0156 36.7133 28.6284 36.0861 27.4286 33.7664C26.8304 32.6096 26.6539 32.2984 26.6539 32.3998ZM75.1348 33.0904C74.9874 33.3703 74.7871 33.9469 74.7922 34.0764C74.7932 34.1019 74.9158 33.8268 75.0647 33.4648C75.2136 33.1028 75.3279 32.7991 75.3186 32.7899C75.3094 32.7807 75.2266 32.9159 75.1348 33.0904ZM48.837 32.9539C48.7383 33.0759 48.3291 33.9672 48.3291 34.0602C48.3291 34.1099 48.3043 34.1504 48.2741 34.1504C48.2438 34.1504 48.219 34.2008 48.219 34.2624C48.219 34.3562 48.2364 34.3651 48.3258 34.3172C48.396 34.2796 48.4828 34.0954 48.5793 33.7789C48.66 33.5142 48.7734 33.2049 48.8312 33.0914C48.9373 32.8834 48.9397 32.827 48.837 32.9539ZM84.6927 33.4662C84.6927 33.5932 85.4663 33.9282 86.222 34.1282C86.5421 34.213 87.0032 34.2317 87.0032 34.1599C87.0032 34.1349 86.7248 34.0463 86.3843 33.9631C86.044 33.8798 85.5367 33.7146 85.2571 33.596C84.9775 33.4773 84.7361 33.3802 84.7207 33.3802C84.7053 33.3802 84.6927 33.4189 84.6927 33.4662ZM75.9568 34.1276C75.6878 34.2617 75.5524 34.3979 75.4014 34.6868C75.2997 34.8811 75.3656 34.832 75.5354 34.587C75.6206 34.4641 75.7996 34.2995 75.933 34.2213C76.3875 33.9549 77.2189 34.0692 78.1174 34.5214C78.3286 34.6276 78.4709 34.6779 78.4338 34.6332C78.3386 34.5185 77.6707 34.219 77.2273 34.0922C76.6988 33.9411 76.3094 33.9519 75.9568 34.1276ZM62.4429 34.5492C62.5079 34.7619 63.0891 35.8558 63.137 35.8558C63.2495 35.8558 63.1137 35.5403 62.6864 34.8086C62.4574 34.4166 62.3756 34.3295 62.4429 34.5492ZM26.7917 35.0194C26.9227 35.4753 28.4285 38.48 28.8748 39.1758C29.5247 40.1892 30.3883 40.917 30.9407 40.917C31.161 40.917 31.457 40.531 31.6055 40.0501C31.7703 39.5164 31.7314 39.3972 31.5533 39.8904C31.3724 40.3916 31.1182 40.7717 30.9467 40.7976C30.7042 40.8342 30.2169 40.5297 29.7347 40.0403C29.1242 39.4207 28.7242 38.7683 27.7429 36.791C26.9655 35.2249 26.7187 34.7651 26.7917 35.0194ZM13.8074 35.8025C13.7373 35.9159 13.9506 35.964 14.3641 35.9281C14.7328 35.896 14.7695 35.8845 14.6061 35.8516C14.2839 35.7868 13.8341 35.7592 13.8074 35.8025ZM92.3532 36.1711C92.0181 36.2013 92.0643 36.2959 92.4143 36.2959C92.8129 36.2959 93.2197 36.2366 93.2197 36.1784C93.2197 36.1321 92.824 36.1288 92.3532 36.1711ZM21.225 37.055C21.1307 37.2066 20.8895 37.4597 20.6883 37.6178C20.283 37.9362 20.2479 38.0356 20.6169 37.8193C21.0208 37.5826 21.4761 37.0186 21.4138 36.8319C21.4042 36.8031 21.3193 36.9034 21.225 37.055ZM85.5663 38.1413C85.9594 38.312 86.8031 38.4754 86.5622 38.3341C86.4533 38.2704 85.6116 38.0557 85.4812 38.0585C85.4195 38.0598 85.4524 38.0919 85.5663 38.1413ZM92.4495 38.3378C91.8048 38.4114 91.8153 38.4392 92.4749 38.4052C92.8066 38.3882 93.1284 38.3538 93.1901 38.3288C93.3369 38.2693 93.015 38.2732 92.4495 38.3378ZM84.02 39.0775C84.0977 39.2234 84.4858 39.5805 84.8027 39.7976C85.3875 40.1982 86.0035 40.4293 86.6731 40.4993C86.9102 40.5242 86.8447 40.4968 86.3706 40.3731C85.3945 40.1186 84.9602 39.889 84.2997 39.2785C84.1126 39.1055 83.9867 39.0151 84.02 39.0775ZM56.2516 39.2419C56.2523 39.3064 56.6442 39.8689 56.9339 40.2211C57.0524 40.3651 57.2584 40.5468 57.3918 40.625C57.6163 40.7566 57.651 40.762 57.8627 40.6986C58.1329 40.6176 58.4692 40.3938 58.699 40.1421L58.8641 39.9613L58.5792 40.1612C58.2565 40.3876 57.775 40.6419 57.6693 40.6419C57.521 40.6418 56.9735 40.1435 56.6652 39.7278C56.2771 39.2046 56.2508 39.1737 56.2516 39.2419ZM55.2044 39.3491C55.2002 39.4272 56.3245 41.632 56.3537 41.6028C56.3669 41.5895 56.2535 41.3247 56.1017 41.014C55.7195 40.2319 55.208 39.2828 55.2044 39.3491ZM20.8673 39.6614C20.7558 39.7543 20.4711 39.9018 20.2347 39.9892C19.8058 40.1478 19.9594 40.1573 20.4473 40.0023C20.7202 39.9156 21.1526 39.633 21.1526 39.5414C21.1526 39.4527 21.0825 39.4822 20.8673 39.6614ZM84.1701 43.5345C84.7157 44.0378 85.7693 44.6011 86.3156 44.6814C86.4706 44.7042 86.433 44.6832 86.1885 44.6102C85.5509 44.4199 84.9861 44.1174 84.3076 43.6027C84.0399 43.3996 84.0053 43.3825 84.1701 43.5345ZM21.4891 44.4183C21.4809 45.136 21.3475 45.5912 21.0448 45.9352C20.9246 46.0717 20.7504 46.2148 20.6576 46.2532C20.5649 46.2917 20.4998 46.334 20.5131 46.3472C20.5603 46.3944 20.853 46.2043 21.0531 45.9965C21.3757 45.6614 21.4931 45.3275 21.5241 44.6571C21.5388 44.339 21.5383 44.0295 21.5231 43.9695C21.5079 43.9094 21.4926 44.1113 21.4891 44.4183ZM68.4089 45.7809C68.4088 45.8638 68.9044 46.7206 69.0516 46.8919L69.1883 47.051L69.0788 46.8584C68.7791 46.3316 68.409 45.7363 68.4089 45.7809ZM29.4092 47.5186C29.7377 48.0368 30.5229 48.6787 30.8194 48.6714C30.8733 48.6701 30.8296 48.6376 30.7223 48.5992C30.3299 48.4589 29.9308 48.1217 29.4422 47.5176L29.2871 47.326L29.4092 47.5186ZM68.1888 47.5428C68.1888 47.6171 68.7937 48.7484 68.8814 48.8382C68.9254 48.8831 68.8089 48.6232 68.6224 48.2605C68.293 47.6199 68.1888 47.4474 68.1888 47.5428ZM113.075 49.4401C112.996 49.4646 112.866 49.5284 112.784 49.5819C112.641 49.6756 112.621 49.6747 112.217 49.5547C111.903 49.4616 111.721 49.4382 111.492 49.4618C111.1 49.5023 110.47 49.8113 110.173 50.1081C109.903 50.3775 109.644 50.8759 109.558 51.2887C109.341 52.3339 110.351 53.619 111.467 53.7183C111.705 53.7395 111.874 53.7172 112.129 53.6308C112.561 53.4845 112.608 53.4858 112.937 53.6527C113.139 53.7552 113.294 53.7901 113.549 53.7901H113.889L113.923 53.5012C113.957 53.2044 113.982 49.5016 113.95 49.4733C113.899 49.4283 113.197 49.4017 113.075 49.4401ZM114.419 49.454C114.393 49.4939 114.366 50.7767 114.358 52.3047C114.346 54.492 114.358 55.1121 114.414 55.2204C114.479 55.3458 114.521 55.3594 114.896 55.3744C115.606 55.4028 115.555 55.4795 115.555 54.3877V53.4472L115.679 53.477C115.747 53.4934 115.983 53.5743 116.204 53.6566C116.574 53.7949 116.627 53.8015 116.895 53.7417C117.662 53.5699 118.246 53.1302 118.566 52.4828C118.757 52.096 118.773 52.0256 118.773 51.5924C118.773 51.1875 118.752 51.0778 118.618 50.8056C118.289 50.1352 117.665 49.6458 116.95 49.4975C116.601 49.425 116.384 49.4528 116.077 49.6096C115.806 49.7478 115.786 49.747 115.464 49.5856C115.141 49.4239 114.491 49.342 114.419 49.454ZM119.418 49.4747L119.296 49.5603V52.3864C119.296 54.8823 119.306 55.2226 119.382 55.299C119.481 55.3974 120.199 55.4217 120.341 55.3314C120.41 55.2876 120.421 55.133 120.405 54.3758C120.395 53.879 120.407 53.4599 120.432 53.4445C120.458 53.4291 120.654 53.4863 120.869 53.5716C121.083 53.6569 121.347 53.7433 121.455 53.7636C121.691 53.8078 122.188 53.6755 122.522 53.4801C123.134 53.1211 123.639 52.3683 123.686 51.7447C123.749 50.908 123.065 49.9292 122.188 49.5998C121.73 49.4279 121.346 49.4375 120.893 49.6323L120.538 49.7853L120.419 49.636C120.238 49.4096 119.647 49.3142 119.418 49.4747ZM68.7693 50.8056C69.195 51.577 69.6815 52.2159 70.0867 52.5353C70.2232 52.6429 70.1485 52.5432 69.8901 52.273C69.4531 51.816 69.1697 51.4253 68.8256 50.8056C68.7122 50.6013 68.607 50.4343 68.5919 50.4343C68.5768 50.4343 68.6566 50.6013 68.7693 50.8056ZM111.236 50.6308C110.869 50.8217 110.604 51.2325 110.604 51.6091C110.604 52.0255 110.991 52.51 111.428 52.641C112.187 52.8684 112.967 51.8234 112.606 51.0629C112.558 50.9609 112.405 50.8024 112.267 50.7108C112.062 50.5752 111.958 50.5443 111.708 50.5446C111.538 50.5448 111.328 50.5832 111.236 50.6308ZM116.243 50.6206C115.999 50.727 115.677 51.1098 115.633 51.3466C115.586 51.5982 115.684 52.0439 115.831 52.2516C115.957 52.4277 116.243 52.6188 116.485 52.6881C117.026 52.8436 117.719 52.1948 117.721 51.5306C117.722 51.0156 117.224 50.5422 116.686 50.5464C116.533 50.5476 116.333 50.581 116.243 50.6206ZM121.125 50.6348C120.869 50.761 120.577 51.107 120.507 51.3663C120.422 51.6825 120.516 51.9834 120.796 52.2864C121.087 52.6026 121.261 52.6898 121.599 52.6898C122.299 52.6898 122.835 51.7583 122.505 51.1144C122.443 50.9937 122.283 50.8246 122.133 50.7231C121.919 50.578 121.816 50.5445 121.586 50.5455C121.431 50.5462 121.224 50.5864 121.125 50.6348ZM108.087 52.7019C107.974 52.7562 107.963 52.8002 107.963 53.1894C107.963 53.7603 108.013 53.8119 108.538 53.7782C109.062 53.7446 109.173 53.6795 109.173 53.4057C109.173 53.2872 109.147 53.0653 109.114 52.9125L109.054 52.6348L108.633 52.6385C108.401 52.6406 108.155 52.6691 108.087 52.7019Z" fill="#1FF123"/>
</svg>